<?xml version="1.0" standalone="no"?>
<!DOCTYPE svg PUBLIC "-//W3C//DTD SVG 20010904//EN"
 "http://www.w3.org/TR/2001/REC-SVG-20010904/DTD/svg10.dtd">
<svg version="1.0" xmlns="http://www.w3.org/2000/svg"
 width="480.000000pt" height="469.000000pt" viewBox="0 0 480.000000 469.000000"
 preserveAspectRatio="xMidYMid meet">

<g transform="translate(0.000000,469.000000) scale(0.100000,-0.100000)"
fill="#000000" stroke="none">
<path d="M2279 4555 c-3 -2 -61 -9 -130 -15 -113 -10 -197 -23 -507 -81 -122
-23 -273 -70 -358 -111 -106 -52 -221 -148 -466 -391 -262 -261 -351 -369
-414 -502 -116 -249 -230 -651 -264 -937 -16 -137 -14 -438 5 -542 16 -93 94
-345 125 -406 10 -19 39 -62 65 -95 25 -33 72 -105 102 -160 31 -55 82 -138
113 -185 31 -47 79 -119 106 -160 57 -88 265 -298 374 -379 41 -30 113 -91
160 -136 93 -88 177 -137 305 -180 111 -38 180 -37 238 1 42 27 111 103 135
149 18 36 23 128 13 235 -9 95 -12 107 -37 128 -24 21 -32 22 -113 16 -47 -3
-124 -15 -171 -26 -114 -28 -190 -21 -287 27 -49 24 -87 53 -122 91 -66 72
-78 97 -95 192 -23 129 -68 193 -173 246 -71 35 -95 68 -91 125 3 39 8 49 37
68 19 13 44 23 57 23 32 0 87 -51 146 -135 69 -98 146 -176 225 -228 37 -24
95 -68 128 -97 80 -71 164 -110 235 -110 67 0 115 22 195 87 48 39 71 68 112
143 75 139 71 198 -18 206 -268 25 -369 38 -398 51 -53 26 -146 118 -202 202
-28 42 -93 159 -143 261 -115 231 -129 287 -130 515 l-1 160 48 169 c26 92 54
181 62 196 12 24 13 62 4 251 -6 123 -8 242 -4 264 9 61 39 120 73 144 l31 22
129 -41 c101 -32 141 -50 184 -83 81 -62 157 -93 284 -112 91 -14 123 -15 175
-7 35 7 107 16 159 22 52 6 119 18 149 27 71 20 186 12 299 -21 45 -14 86 -27
91 -30 5 -4 44 -13 86 -22 109 -22 147 -14 252 54 48 32 111 67 138 79 28 12
91 39 140 61 79 35 213 77 221 70 1 -2 14 -50 28 -108 23 -94 25 -113 16 -188
-5 -45 -7 -89 -3 -98 3 -8 -2 -48 -11 -88 l-18 -73 31 -79 c17 -43 31 -85 31
-92 0 -8 20 -51 44 -95 64 -118 116 -325 127 -512 9 -154 3 -219 -37 -350 -20
-69 -32 -89 -83 -146 -112 -124 -441 -320 -603 -360 -21 -5 -92 -10 -159 -12
-156 -3 -156 -3 -89 -149 69 -150 80 -194 92 -368 13 -189 11 -304 -7 -426 -8
-51 -11 -109 -8 -129 11 -65 77 -105 176 -105 54 0 143 43 282 136 50 33 126
85 170 114 129 86 220 162 380 314 156 149 247 262 310 387 46 91 175 413 175
437 0 11 12 60 26 108 59 205 83 417 84 741 0 191 -21 331 -75 503 -20 63 -47
151 -60 195 -21 74 -166 373 -261 540 -21 38 -69 101 -106 140 -56 60 -82 78
-160 114 -202 94 -225 107 -290 154 -60 44 -129 119 -209 227 -14 19 -51 50
-81 68 -47 28 -72 35 -174 47 -65 8 -144 15 -175 15 -31 0 -73 7 -92 15 -20 8
-87 19 -149 25 -116 10 -391 14 -399 5z"/>
<path d="M910 1425 c-20 -25 -8 -50 25 -50 21 0 31 5 33 18 4 21 -14 47 -33
47 -7 0 -18 -7 -25 -15z"/>
<path d="M1044 1295 c-9 -21 3 -45 21 -45 21 0 30 27 15 45 -16 19 -29 19 -36
0z"/>
<path d="M1100 1181 c-23 -44 -5 -81 40 -81 14 0 31 5 38 12 7 7 12 24 12 38
0 14 -5 31 -12 38 -19 19 -66 15 -78 -7z"/>
<path d="M1224 1056 c-10 -26 4 -48 28 -44 17 2 23 10 23 28 0 18 -6 26 -23
28 -13 2 -25 -3 -28 -12z"/>
<path d="M1344 985 c-19 -19 -23 -31 -18 -48 14 -45 54 -58 92 -31 28 19 29
57 2 84 -27 27 -46 25 -76 -5z"/>
<path d="M1536 914 c-8 -21 -8 -20 10 -38 19 -20 29 -20 48 0 12 12 13 20 6
35 -13 23 -55 25 -64 3z"/>
<path d="M1660 916 c-28 -35 11 -93 48 -70 35 22 22 84 -18 84 -10 0 -23 -7
-30 -14z"/>
</g>
</svg>
